# xmcd
#
# Track frame offsets: 
#        150
#        16359
#        30194
#        41607
#        61074
#        77726
#        94099
#        112621
#        140328
#
# Disc length: 1980 seconds
#
# Revision: 0
# Processed by: cddbd v1.5.2PL0 Copyright (c) Steve Scherf et al.
# Submitted via: ExactAudioCopyFreeDBPlugin 1.0
#
DISCID=5c07ba09
DTITLE=Hushabye Baby - Hushabye Baby
DYEAR=2005
DGENRE=Country
TTITLE0=Johnny Cash, by Hushabye Baby - I walk the line
TTITLE1=George Strait, by Hushabye Baby - Love without end, Amen
TTITLE2=Patsy Cline, by Hushabye Baby - Sweet Dreams
TTITLE3=Toby Keith, by Hushabye Baby - Should've been a cowboy
TTITLE4=Randy Travis, by Husabye Baby - Forever and ever, Amen
TTITLE5=Taylor Swift, by Hushabye Baby - Teardrops on my guitar
TTITLE6=Brooks and Dunn, by Husabye Baby - Believe
TTITLE7=Waylon Jennings, by Hushabye Baby - Dreaming my dreams with yo
TTITLE7=u
TTITLE8=PDF Catalog - Data
EXTD=
EXTT0=
EXTT1=
EXTT2=
EXTT3=
EXTT4=
EXTT5=
EXTT6=
EXTT7=
EXTT8=
PLAYORDER=
